<svg xmlns="http://www.w3.org/2000/svg" xmlns:xlink="http://www.w3.org/1999/xlink" width="1080" zoomAndPan="magnify" viewBox="0 0 810 809.999993" height="1080" preserveAspectRatio="xMidYMid meet" version="1.0"><path stroke-linecap="round" transform="matrix(31.375, 0, 0, 31.375, 56.953126, 0.00002)" fill="none" stroke-linejoin="round" d="M 11 3.999999 L 4 3.999999 C 3.469622 3.999999 2.960906 4.210657 2.585782 4.585781 C 2.210657 4.960906 2 5.469621 2 5.999999 L 2 20 C 2 20.530378 2.210657 21.039093 2.585782 21.414218 C 2.960906 21.789342 3.469622 22 4 22 L 18 22 C 18.530379 22 19.039094 21.789342 19.414218 21.414218 C 19.789343 21.039093 20 20.530378 20 20 L 20 12.999999 " stroke="#ffffff" stroke-width="2" stroke-opacity="1" stroke-miterlimit="4"/><path stroke-linecap="round" transform="matrix(31.375, 0, 0, 31.375, 56.953126, 0.00002)" fill="none" stroke-linejoin="round" d="M 18.5 2.500248 C 18.897784 2.10234 19.437376 1.878859 20 1.878859 C 20.562625 1.878859 21.102216 2.10234 21.5 2.500248 C 21.897784 2.898032 22.121265 3.437624 22.121265 4.000248 C 22.121265 4.562873 21.897784 5.10234 21.5 5.500248 L 12 15.000249 L 8 16.000249 L 9 12.000248 Z M 18.5 2.500248 " stroke="#ffffff" stroke-width="2" stroke-opacity="1" stroke-miterlimit="4"/></svg>