<svg width="44" height="44" viewBox="0 0 44 44" fill="none" xmlns="http://www.w3.org/2000/svg">
<path d="M23.8333 38.8657C28.2041 38.3095 32.1992 36.11 35.0064 32.714C37.8137 29.3181 39.2226 24.9807 38.9467 20.5833C38.6708 16.1859 36.7308 12.0586 33.5211 9.04016C30.3113 6.02176 26.0727 4.3388 21.6667 4.33333C17.2552 4.33005 13.0086 6.0089 9.7919 9.0278C6.57525 12.0467 4.63069 16.1785 4.35444 20.5812C4.0782 24.984 5.49106 29.3264 8.30515 32.7237C11.1192 36.121 15.1228 38.3175 19.5 38.8657V26H15.1667V21.6667H19.5V18.083C19.5 15.1862 19.8033 14.1353 20.3667 13.0758C20.9216 12.0276 21.7792 11.1707 22.828 10.6167C23.6557 10.1725 24.6848 9.906 26.4832 9.79117C27.196 9.74567 28.119 9.802 29.2522 9.9645V14.0812H28.1667C26.1798 14.0812 25.3587 14.1743 24.869 14.4365C24.5768 14.5868 24.3389 14.8247 24.1887 15.1168C23.9287 15.6065 23.8333 16.0918 23.8333 18.0808V21.6667H29.25L28.1667 26H23.8333V38.8657ZM21.6667 43.3333C9.70017 43.3333 0 33.6332 0 21.6667C0 9.70017 9.70017 0 21.6667 0C33.6332 0 43.3333 9.70017 43.3333 21.6667C43.3333 33.6332 33.6332 43.3333 21.6667 43.3333Z" fill="#00AFF0"/>
</svg>
