<svg width="41" height="41" viewBox="0 0 41 41" fill="none" xmlns="http://www.w3.org/2000/svg">
<path d="M11.89 0H29.11C35.67 0 41 5.33 41 11.89V29.11C41 32.2634 39.7473 35.2877 37.5175 37.5175C35.2877 39.7473 32.2634 41 29.11 41H11.89C5.33 41 0 35.67 0 29.11V11.89C0 8.73658 1.25269 5.71231 3.4825 3.4825C5.71231 1.25269 8.73658 0 11.89 0ZM11.48 4.1C9.5227 4.1 7.64557 4.87753 6.26155 6.26155C4.87753 7.64557 4.1 9.5227 4.1 11.48V29.52C4.1 33.5995 7.4005 36.9 11.48 36.9H29.52C31.4773 36.9 33.3544 36.1225 34.7384 34.7384C36.1225 33.3544 36.9 31.4773 36.9 29.52V11.48C36.9 7.4005 33.5995 4.1 29.52 4.1H11.48ZM31.2625 7.175C31.9421 7.175 32.5939 7.44498 33.0745 7.92554C33.555 8.4061 33.825 9.05788 33.825 9.7375C33.825 10.4171 33.555 11.0689 33.0745 11.5495C32.5939 12.03 31.9421 12.3 31.2625 12.3C30.5829 12.3 29.9311 12.03 29.4505 11.5495C28.97 11.0689 28.7 10.4171 28.7 9.7375C28.7 9.05788 28.97 8.4061 29.4505 7.92554C29.9311 7.44498 30.5829 7.175 31.2625 7.175ZM20.5 10.25C23.2185 10.25 25.8256 11.3299 27.7478 13.2522C29.6701 15.1744 30.75 17.7815 30.75 20.5C30.75 23.2185 29.6701 25.8256 27.7478 27.7478C25.8256 29.6701 23.2185 30.75 20.5 30.75C17.7815 30.75 15.1744 29.6701 13.2522 27.7478C11.3299 25.8256 10.25 23.2185 10.25 20.5C10.25 17.7815 11.3299 15.1744 13.2522 13.2522C15.1744 11.3299 17.7815 10.25 20.5 10.25ZM20.5 14.35C18.8689 14.35 17.3046 14.9979 16.1513 16.1513C14.9979 17.3046 14.35 18.8689 14.35 20.5C14.35 22.1311 14.9979 23.6954 16.1513 24.8487C17.3046 26.0021 18.8689 26.65 20.5 26.65C22.1311 26.65 23.6954 26.0021 24.8487 24.8487C26.0021 23.6954 26.65 22.1311 26.65 20.5C26.65 18.8689 26.0021 17.3046 24.8487 16.1513C23.6954 14.9979 22.1311 14.35 20.5 14.35Z" fill="#FFF600"/>
</svg>
