<svg width="44" height="45" viewBox="0 0 44 45" fill="none" xmlns="http://www.w3.org/2000/svg">
<path fill-rule="evenodd" clip-rule="evenodd" d="M32.08 26.494C31.5326 26.22 28.8413 24.8959 28.3395 24.713C27.8378 24.5303 27.4729 24.4392 27.108 24.987C26.7431 25.535 25.6939 26.7681 25.3746 27.1334C25.0553 27.4987 24.736 27.5446 24.1887 27.2704C23.6412 26.9965 21.8774 26.4185 19.7865 24.5534C18.1593 23.1019 17.0606 21.3093 16.7413 20.7613C16.422 20.2133 16.7072 19.917 16.9813 19.6441C17.2276 19.3988 17.5288 19.0047 17.8024 18.685C18.0762 18.3655 18.1674 18.137 18.3498 17.7719C18.5322 17.4065 18.4411 17.0869 18.3041 16.8129C18.1674 16.5389 17.0726 13.8444 16.6164 12.7482C16.1721 11.681 15.7208 11.8255 15.3848 11.8086C15.0659 11.7928 14.7005 11.7894 14.3357 11.7894C13.9708 11.7894 13.3776 11.9264 12.8758 12.4743C12.3741 13.0223 10.96 14.3467 10.96 17.041C10.96 19.7355 12.9215 22.3383 13.1952 22.7037C13.4689 23.0692 17.0552 28.5982 22.5466 30.9693C23.8525 31.5334 24.8722 31.8702 25.6671 32.1224C26.9784 32.5391 28.1718 32.4803 29.115 32.3393C30.1667 32.1823 32.3537 31.0152 32.8099 29.7366C33.266 28.4577 33.266 27.3617 33.1292 27.1334C32.9924 26.9051 32.6275 26.7681 32.08 26.494ZM22.092 40.1317H22.0846C18.8171 40.1304 15.6124 39.2526 12.8167 37.5935L12.1517 37.1989L5.26006 39.0068L7.09955 32.2873L6.66669 31.5984C4.84387 28.6993 3.88111 25.3485 3.88257 21.9078C3.88661 11.8681 12.0552 3.70021 22.0993 3.70021C26.9629 3.70184 31.5348 5.5984 34.9728 9.04028C38.4107 12.4821 40.3029 17.057 40.301 21.9225C40.2969 31.9629 32.1283 40.1317 22.092 40.1317ZM37.5893 6.42495C33.4531 2.28396 27.9525 0.00240625 22.0918 0C10.0164 0 0.188461 9.8273 0.183562 21.9064C0.182016 25.7678 1.19075 29.5365 3.10802 32.859L0 44.2115L11.6137 41.165C14.8136 42.9104 18.4164 43.8304 22.0831 43.8316H22.0921C34.1663 43.8316 43.995 34.0032 44 21.9239C44.0022 16.0701 41.7255 10.5659 37.5893 6.42495Z" fill="#00A95B"/>
</svg>
