<svg width="54" height="54" viewBox="0 0 54 54" fill="none" xmlns="http://www.w3.org/2000/svg">
<g clip-path="url(#clip0_347_34)">
<path d="M44.1135 15.7387C43.9425 15.0682 43.4565 14.562 42.9007 14.4067C41.9175 14.13 37.125 13.5 27 13.5C16.875 13.5 12.087 14.13 11.0948 14.4067C10.5458 14.5597 10.0598 15.066 9.8865 15.7387C9.64125 16.6927 9 20.691 9 27C9 33.309 9.64125 37.305 9.8865 38.2635C10.0575 38.9318 10.5435 39.438 11.097 39.591C12.087 39.87 16.875 40.5 27 40.5C37.125 40.5 41.9153 39.87 42.9053 39.5933C43.4543 39.4403 43.9403 38.934 44.1135 38.2612C44.3588 37.3072 45 33.3 45 27C45 20.7 44.3588 16.695 44.1135 15.7387ZM48.4717 14.6205C49.5 18.63 49.5 27 49.5 27C49.5 27 49.5 35.37 48.4717 39.3795C47.9002 41.5958 46.2285 43.3395 44.1112 43.929C40.266 45 27 45 27 45C27 45 13.7407 45 9.88875 43.929C7.7625 43.3305 6.093 41.589 5.52825 39.3795C4.5 35.37 4.5 27 4.5 27C4.5 27 4.5 18.63 5.52825 14.6205C6.09975 12.4043 7.7715 10.6605 9.88875 10.071C13.7407 9 27 9 27 9C27 9 40.266 9 44.1112 10.071C46.2375 10.6695 47.907 12.411 48.4717 14.6205ZM22.5 34.875V19.125L36 27L22.5 34.875Z" fill="#EC3237"/>
</g>
<defs>
<clipPath id="clip0_347_34">
<rect width="54" height="54" fill="white"/>
</clipPath>
</defs>
</svg>
